<svg xmlns="http://www.w3.org/2000/svg" width="256" height="256" viewBox="0 0 100 100"><rect width="100" height="100" rx="20" fill="#7d6ee7"></rect><path fill="#fff" d="M9.39 43.89L9.39 59.60Q9.18 59.68 8.76 59.79Q8.34 59.89 7.83 59.89L7.83 59.89Q6.03 59.89 6.03 58.38L6.03 58.38L6.03 44.14Q6.03 43.18 6.38 42.61Q6.74 42.04 7.58 41.50L7.58 41.50Q8.67 40.78 10.54 40.26Q12.41 39.73 14.76 39.73L14.76 39.73Q18.12 39.73 18.12 41.41L18.12 41.41Q18.12 41.83 18.00 42.19Q17.87 42.55 17.66 42.80L17.66 42.80Q17.24 42.71 16.57 42.63Q15.90 42.55 15.22 42.55L15.22 42.55Q13.29 42.55 11.82 42.94Q10.35 43.34 9.39 43.89L9.39 43.89ZM29 57.50L29 57.50Q30.76 57.50 31.92 57.14Q33.07 56.78 33.58 56.45L33.58 56.45L33.58 50.36L28.37 50.90Q26.19 51.11 25.14 51.89Q24.09 52.67 24.09 54.18L24.09 54.18Q24.09 55.78 25.30 56.64Q26.52 57.50 29 57.50ZM28.96 39.73L28.96 39.73Q32.61 39.73 34.75 41.37Q36.90 43.01 36.90 46.54L36.90 46.54L36.90 56.49Q36.90 57.41 36.54 57.90Q36.18 58.38 35.47 58.80L35.47 58.80Q34.46 59.39 32.80 59.83Q31.14 60.27 29 60.27L29 60.27Q25.05 60.27 22.89 58.72Q20.73 57.16 20.73 54.22L20.73 54.22Q20.73 51.45 22.53 50.04Q24.34 48.64 27.61 48.30L27.61 48.30L33.58 47.71L33.58 46.54Q33.58 44.44 32.32 43.47Q31.06 42.50 28.92 42.50L28.92 42.50Q27.15 42.50 25.60 43.01Q24.04 43.51 22.83 44.14L22.83 44.14Q22.49 43.85 22.22 43.47Q21.94 43.09 21.94 42.63L21.94 42.63Q21.94 42.04 22.24 41.66Q22.53 41.29 23.16 40.95L23.16 40.95Q24.30 40.36 25.77 40.05Q27.24 39.73 28.96 39.73ZM52.02 42.55L52.02 42.55Q50.59 42.55 49.37 43.03Q48.15 43.51 47.27 44.46Q46.39 45.40 45.88 46.81Q45.38 48.22 45.38 50.02L45.38 50.02Q45.38 53.63 47.19 55.54Q48.99 57.46 52.02 57.46L52.02 57.46Q53.78 57.46 54.96 56.97Q56.13 56.49 57.06 55.86L57.06 55.86Q57.52 56.11 57.81 56.49Q58.11 56.87 58.11 57.41L58.11 57.41Q58.11 58.00 57.64 58.51Q57.18 59.01 56.36 59.39Q55.54 59.77 54.43 60.00Q53.32 60.23 52.02 60.23L52.02 60.23Q49.83 60.23 47.98 59.60Q46.14 58.97 44.79 57.71Q43.45 56.45 42.69 54.54Q41.94 52.63 41.94 50.02L41.94 50.02Q41.94 47.46 42.73 45.55Q43.53 43.64 44.88 42.34Q46.22 41.03 48.05 40.38Q49.87 39.73 51.93 39.73L51.93 39.73Q53.23 39.73 54.35 39.96Q55.46 40.19 56.26 40.61Q57.06 41.03 57.50 41.56Q57.94 42.08 57.94 42.63L57.94 42.63Q57.94 43.13 57.64 43.51Q57.35 43.89 56.89 44.10L56.89 44.10Q55.96 43.47 54.87 43.01Q53.78 42.55 52.02 42.55ZM76.80 54.52L76.80 54.52Q76.80 57.20 74.82 58.72Q72.85 60.23 69.11 60.23L69.11 60.23Q67.51 60.23 66.17 59.95Q64.83 59.68 63.88 59.24Q62.94 58.80 62.41 58.23Q61.89 57.67 61.89 57.08L61.89 57.08Q61.89 56.57 62.16 56.11Q62.43 55.65 62.98 55.31L62.98 55.31Q64.11 56.15 65.62 56.80Q67.14 57.46 69.07 57.46L69.07 57.46Q73.44 57.46 73.44 54.52L73.44 54.52Q73.44 52.12 70.54 51.41L70.54 51.41L67.05 50.48Q64.49 49.81 63.31 48.53Q62.14 47.25 62.14 45.23L62.14 45.23Q62.14 44.14 62.58 43.13Q63.02 42.13 63.94 41.37Q64.87 40.61 66.23 40.17Q67.60 39.73 69.45 39.73L69.45 39.73Q72.39 39.73 74.19 40.59Q76.00 41.45 76.00 42.59L76.00 42.59Q76.00 43.13 75.72 43.55Q75.45 43.97 74.99 44.18L74.99 44.18Q74.23 43.68 72.85 43.09Q71.46 42.50 69.57 42.50L69.57 42.50Q67.68 42.50 66.57 43.22Q65.46 43.93 65.46 45.23L65.46 45.23Q65.46 46.20 66.09 46.87Q66.72 47.54 68.19 47.88L68.19 47.88L71.08 48.59Q73.94 49.31 75.37 50.71Q76.80 52.12 76.80 54.52ZM85.24 43.89L85.24 59.60Q85.03 59.68 84.61 59.79Q84.19 59.89 83.68 59.89L83.68 59.89Q81.88 59.89 81.88 58.38L81.88 58.38L81.88 44.14Q81.88 43.18 82.24 42.61Q82.59 42.04 83.43 41.50L83.43 41.50Q84.52 40.78 86.39 40.26Q88.26 39.73 90.61 39.73L90.61 39.73Q93.97 39.73 93.97 41.41L93.97 41.41Q93.97 41.83 93.85 42.19Q93.72 42.55 93.51 42.80L93.51 42.80Q93.09 42.71 92.42 42.63Q91.75 42.55 91.08 42.55L91.08 42.55Q89.14 42.55 87.67 42.94Q86.20 43.34 85.24 43.89L85.24 43.89Z"></path></svg>